<svg width="34" height="34" viewBox="0 0 34 34" fill="none" xmlns="http://www.w3.org/2000/svg">
<path d="M2.70137 7.82134H2.84678C3.07029 8.69951 3.58002 9.47817 4.29544 10.0343C5.01087 10.5905 5.8912 10.8924 6.79737 10.8924C7.70353 10.8924 8.58386 10.5905 9.29929 10.0343C10.0147 9.47817 10.5244 8.69951 10.748 7.82134H31.3734C31.6449 7.82134 31.9054 7.71346 32.0974 7.52142C32.2895 7.32938 32.3974 7.06893 32.3974 6.79734C32.3974 6.52576 32.2895 6.2653 32.0974 6.07327C31.9054 5.88123 31.6449 5.77334 31.3734 5.77334H10.748C10.5244 4.89518 10.0147 4.11651 9.29929 3.56037C8.58386 3.00422 7.70353 2.7023 6.79737 2.7023C5.8912 2.7023 5.01087 3.00422 4.29544 3.56037C3.58002 4.11651 3.07029 4.89518 2.84678 5.77334H2.70137C2.42979 5.77334 2.16933 5.88123 1.97729 6.07327C1.78525 6.2653 1.67737 6.52576 1.67737 6.79734C1.67737 7.06893 1.78525 7.32938 1.97729 7.52142C2.16933 7.71346 2.42979 7.82134 2.70137 7.82134ZM6.79737 4.74934C7.20242 4.74934 7.59838 4.86946 7.93518 5.09449C8.27197 5.31953 8.53446 5.63938 8.68947 6.01361C8.84448 6.38783 8.88504 6.79961 8.80602 7.19689C8.72699 7.59416 8.53194 7.95908 8.24552 8.2455C7.9591 8.53192 7.59419 8.72697 7.19691 8.80599C6.79964 8.88501 6.38786 8.84446 6.01363 8.68945C5.63941 8.53444 5.31956 8.27194 5.09452 7.93515C4.86948 7.59836 4.74937 7.2024 4.74937 6.79734C4.74937 6.25418 4.96514 5.73326 5.34921 5.34919C5.73329 4.96511 6.2542 4.74934 6.79737 4.74934ZM31.3734 16.0133H31.228C31.0044 15.1352 30.4947 14.3565 29.7793 13.8004C29.0639 13.2442 28.1835 12.9423 27.2774 12.9423C26.3712 12.9423 25.4909 13.2442 24.7754 13.8004C24.06 14.3565 23.5503 15.1352 23.3268 16.0133H2.70137C2.42979 16.0133 2.16933 16.1212 1.97729 16.3133C1.78525 16.5053 1.67737 16.7658 1.67737 17.0373C1.67737 17.3089 1.78525 17.5694 1.97729 17.7614C2.16933 17.9535 2.42979 18.0613 2.70137 18.0613H23.3268C23.5503 18.9395 24.06 19.7182 24.7754 20.2743C25.4909 20.8305 26.3712 21.1324 27.2774 21.1324C28.1835 21.1324 29.0639 20.8305 29.7793 20.2743C30.4947 19.7182 31.0044 18.9395 31.228 18.0613H31.3734C31.6449 18.0613 31.9054 17.9535 32.0974 17.7614C32.2895 17.5694 32.3974 17.3089 32.3974 17.0373C32.3974 16.7658 32.2895 16.5053 32.0974 16.3133C31.9054 16.1212 31.6449 16.0133 31.3734 16.0133ZM27.2774 19.0853C26.8723 19.0853 26.4763 18.9652 26.1396 18.7402C25.8028 18.5152 25.5403 18.1953 25.3853 17.8211C25.2303 17.4469 25.1897 17.0351 25.2687 16.6378C25.3477 16.2405 25.5428 15.8756 25.8292 15.5892C26.1156 15.3028 26.4805 15.1077 26.8778 15.0287C27.2751 14.9497 27.6869 14.9902 28.0611 15.1452C28.4353 15.3002 28.7552 15.5627 28.9802 15.8995C29.2053 16.2363 29.3254 16.6323 29.3254 17.0373C29.3254 17.5805 29.1096 18.1014 28.7255 18.4855C28.3414 18.8696 27.8205 19.0853 27.2774 19.0853ZM31.3734 26.2533H20.988C20.7644 25.3752 20.2547 24.5965 19.5393 24.0404C18.8239 23.4842 17.9435 23.1823 17.0374 23.1823C16.1312 23.1823 15.2509 23.4842 14.5354 24.0404C13.82 24.5965 13.3103 25.3752 13.0868 26.2533H2.70137C2.42979 26.2533 2.16933 26.3612 1.97729 26.5533C1.78525 26.7453 1.67737 27.0058 1.67737 27.2773C1.67737 27.5489 1.78525 27.8094 1.97729 28.0014C2.16933 28.1935 2.42979 28.3013 2.70137 28.3013H13.0868C13.3103 29.1795 13.82 29.9582 14.5354 30.5143C15.2509 31.0705 16.1312 31.3724 17.0374 31.3724C17.9435 31.3724 18.8239 31.0705 19.5393 30.5143C20.2547 29.9582 20.7644 29.1795 20.988 28.3013H31.3734C31.6449 28.3013 31.9054 28.1935 32.0974 28.0014C32.2895 27.8094 32.3974 27.5489 32.3974 27.2773C32.3974 27.0058 32.2895 26.7453 32.0974 26.5533C31.9054 26.3612 31.6449 26.2533 31.3734 26.2533ZM17.0374 29.3253C16.6323 29.3253 16.2364 29.2052 15.8996 28.9802C15.5628 28.7552 15.3003 28.4353 15.1453 28.0611C14.9903 27.6869 14.9497 27.2751 15.0287 26.8778C15.1077 26.4805 15.3028 26.1156 15.5892 25.8292C15.8756 25.5428 16.2405 25.3477 16.6378 25.2687C17.0351 25.1897 17.4469 25.2302 17.8211 25.3852C18.1953 25.5402 18.5152 25.8027 18.7402 26.1395C18.9653 26.4763 19.0854 26.8723 19.0854 27.2773C19.0854 27.8205 18.8696 28.3414 18.4855 28.7255C18.1014 29.1096 17.5805 29.3253 17.0374 29.3253Z" fill="#4F10A1"/>
</svg>
