<svg width="34" height="34" viewBox="0 0 34 34" fill="none" xmlns="http://www.w3.org/2000/svg">
<path d="M20.1813 14.1344C20.1813 14.6281 20.025 15.2976 19.72 16.1091C19.419 16.9095 18.9924 17.7989 18.4958 18.7166C17.5026 20.5516 16.2555 22.4518 15.2503 23.9008C14.6726 24.7336 13.402 24.7336 12.8243 23.9008C11.8192 22.4518 10.572 20.5516 9.57889 18.7166C9.08222 17.7989 8.65562 16.9095 8.35471 16.1091C8.04961 15.2976 7.89333 14.6281 7.89333 14.1344C7.89333 12.55 8.53685 11.0272 9.68744 9.90209C10.8385 8.77644 12.403 8.14141 14.0373 8.14141C15.6717 8.14141 17.2361 8.77644 18.3872 9.90209C19.5378 11.0272 20.1813 12.55 20.1813 14.1344ZM14.0373 16.7126C15.6319 16.7126 16.9956 15.4857 16.9956 13.8872C16.9956 12.2886 15.6319 11.0617 14.0373 11.0617C12.4428 11.0617 11.0791 12.2886 11.0791 13.8872C11.0791 15.4857 12.4428 16.7126 14.0373 16.7126Z" fill="#33184B" stroke="#33184B" stroke-width="1.36533" stroke-linecap="round" stroke-linejoin="round"/>
</svg>
