<svg width="61" height="62" viewBox="0 0 61 62" fill="none" xmlns="http://www.w3.org/2000/svg">
<path d="M42.7519 38.488C43.129 38.488 43.4346 38.1824 43.4346 37.8053C43.4346 37.4283 43.129 37.1227 42.7519 37.1227C42.752 37.1227 42.7349 37.1225 42.6996 37.115C42.6652 37.1077 42.6187 37.0947 42.5612 37.0727C42.4461 37.0287 42.296 36.9521 42.1223 36.8275C41.7759 36.5789 41.3431 36.1445 40.9184 35.4215C40.0671 33.9723 39.2567 31.3762 39.2567 26.8909C39.2567 24.5374 38.3321 22.2788 36.684 20.6124C35.0356 18.9457 32.7984 18.008 30.4639 18.008C28.1295 18.008 25.8922 18.9457 24.2439 20.6124C22.5958 22.2788 21.6712 24.5374 21.6712 26.8909C21.6712 31.3671 20.8654 33.9635 20.016 35.4153C19.5922 36.1396 19.1599 36.5756 18.8129 36.8253C18.6388 36.9505 18.4882 37.0275 18.3721 37.0719C18.3142 37.0941 18.2671 37.1073 18.2319 37.1147C18.2144 37.1183 18.2008 37.1204 18.191 37.1215C18.1861 37.1221 18.1824 37.1224 18.1798 37.1225C18.1772 37.1227 18.1759 37.1227 18.1759 37.1227C17.7989 37.1227 17.4933 37.4283 17.4933 37.8053C17.4933 38.1824 17.7989 38.488 18.1759 38.488H42.7519Z" stroke="#33184B" stroke-width="1.36533" stroke-linecap="round" stroke-linejoin="round"/>
<path d="M26.3679 41.2187C26.604 42.0006 27.1341 42.6929 27.8754 43.1871C28.6166 43.6813 29.527 43.9494 30.4639 43.9494C31.4008 43.9494 32.3112 43.6813 33.0524 43.1871C33.7937 42.6929 34.3239 42.0006 34.5599 41.2187" stroke="#33184B" stroke-width="1.36533" stroke-linecap="round" stroke-linejoin="round"/>
</svg>
