<svg width="34" height="34" viewBox="0 0 34 34" fill="none" xmlns="http://www.w3.org/2000/svg">
<path d="M24.1961 10.7918C24.1961 14.6159 21.0961 17.716 17.272 17.716C13.4478 17.716 10.3478 14.6159 10.3478 10.7918C10.3478 6.96767 13.4478 3.8676 17.272 3.8676C21.0961 3.8676 24.1961 6.96767 24.1961 10.7918Z" stroke="#999999" stroke-width="1.36533" stroke-linecap="round" stroke-linejoin="round"/>
<path d="M29.6895 29.0361C29.8294 29.3729 29.588 29.8089 29.1036 29.8089H5.44044C4.95608 29.8089 4.71459 29.3729 4.85449 29.0361C5.83096 26.6856 7.34301 24.6472 9.24847 23.1228C11.5858 21.253 14.3954 20.2516 17.272 20.2516C20.1486 20.2516 22.9583 21.253 25.2956 23.1228C27.201 24.6472 28.7131 26.6856 29.6895 29.0361Z" stroke="#999999" stroke-width="1.36533" stroke-linecap="round" stroke-linejoin="round"/>
</svg>
