<svg width="34" height="34" viewBox="0 0 34 34" fill="none" xmlns="http://www.w3.org/2000/svg">
<mask id="path-1-inside-1_26_84" fill="white">
<path d="M5.44713 5.91559C4.89004 5.91559 4.35576 6.15097 3.96184 6.56996C3.56792 6.98896 3.34661 7.55723 3.34661 8.14977V28.2574C3.34661 28.8499 3.56792 29.4182 3.96184 29.8372C4.35576 30.2562 4.89004 30.4916 5.44713 30.4916H28.5528C29.1099 30.4916 29.6441 30.2562 30.0381 29.8372C30.432 29.4182 30.6533 28.8499 30.6533 28.2574V8.14977C30.6533 7.55723 30.432 6.98896 30.0381 6.56996C29.6441 6.15097 29.1099 5.91559 28.5528 5.91559H24.3517"/>
</mask>
<path d="M5.44713 7.28092C6.20118 7.28092 6.81246 6.66964 6.81246 5.91559C6.81246 5.16154 6.20118 4.55026 5.44713 4.55026V7.28092ZM3.34661 8.14977H1.98128H3.34661ZM3.34661 28.2574H1.98128H3.34661ZM28.5528 5.91559V4.55026V5.91559ZM24.3517 4.55026C23.5977 4.55026 22.9864 5.16154 22.9864 5.91559C22.9864 6.66964 23.5977 7.28092 24.3517 7.28092V4.55026ZM5.44713 4.55026C4.49979 4.55026 3.60966 4.9513 2.9671 5.63474L4.95657 7.50519C5.10187 7.35065 5.28028 7.28092 5.44713 7.28092V4.55026ZM2.9671 5.63474C2.32724 6.31533 1.98128 7.22137 1.98128 8.14977H4.71195C4.71195 7.89309 4.8086 7.66258 4.95657 7.50519L2.9671 5.63474ZM1.98128 8.14977V28.2574H4.71195V8.14977H1.98128ZM1.98128 28.2574C1.98128 29.1858 2.32724 30.0918 2.9671 30.7724L4.95657 28.902C4.8086 28.7446 4.71195 28.5141 4.71195 28.2574H1.98128ZM2.9671 30.7724C3.60966 31.4559 4.49979 31.8569 5.44713 31.8569V29.1263C5.28028 29.1263 5.10187 29.0565 4.95657 28.902L2.9671 30.7724ZM5.44713 31.8569H28.5528V29.1263H5.44713V31.8569ZM28.5528 31.8569C29.5001 31.8569 30.3902 31.4559 31.0328 30.7724L29.0433 28.902C28.898 29.0565 28.7196 29.1263 28.5528 29.1263V31.8569ZM31.0328 30.7724C31.6727 30.0918 32.0186 29.1858 32.0186 28.2574H29.2879C29.2879 28.5141 29.1913 28.7446 29.0433 28.902L31.0328 30.7724ZM32.0186 28.2574V8.14977H29.2879V28.2574H32.0186ZM32.0186 8.14977C32.0186 7.22137 31.6727 6.31533 31.0328 5.63474L29.0433 7.50519C29.1913 7.66258 29.2879 7.89309 29.2879 8.14977H32.0186ZM31.0328 5.63474C30.3902 4.9513 29.5001 4.55026 28.5528 4.55026V7.28092C28.7196 7.28092 28.898 7.35065 29.0433 7.50519L31.0328 5.63474ZM28.5528 4.55026H24.3517V7.28092H28.5528V4.55026Z" fill="#999999" mask="url(#path-1-inside-1_26_84)"/>
<path d="M10.1733 3.86761V9.32895" stroke="#999999" stroke-width="1.36533" stroke-linecap="round" stroke-linejoin="round"/>
<path d="M23.8266 3.86761V9.32895" stroke="#999999" stroke-width="1.36533" stroke-linecap="round" stroke-linejoin="round"/>
<path d="M8.80795 6.59827H20.5108" stroke="#999999" stroke-width="1.36533" stroke-linecap="round" stroke-linejoin="round"/>
<path d="M11.5386 19.959L16.2198 23.4699L24.4118 14.1076" stroke="#999999" stroke-width="1.36533" stroke-linecap="round" stroke-linejoin="round"/>
</svg>
